<svg width="220" height="24" viewBox="0 0 220 24" fill="none" xmlns="http://www.w3.org/2000/svg">
<g clip-path="url(#clip0_44_15986)">
<path fill-rule="evenodd" clip-rule="evenodd" d="M9.16676 4.65838C9.22433 4.47584 9.33858 4.31641 9.49294 4.20324C9.64729 4.09007 9.8337 4.02905 10.0251 4.02905C10.2165 4.02905 10.4029 4.09007 10.5573 4.20324C10.7116 4.31641 10.8259 4.47584 10.8834 4.65838L12.4334 9.42505H17.4334C17.6317 9.41755 17.8269 9.47516 17.9893 9.58908C18.1517 9.70299 18.2724 9.86695 18.3329 10.0559C18.3933 10.2448 18.3903 10.4484 18.3242 10.6354C18.2581 10.8225 18.1325 10.9827 17.9668 11.0917L13.9084 14.0334L15.4584 18.8084C15.5197 18.9903 15.5213 19.187 15.4628 19.3698C15.4044 19.5526 15.2891 19.712 15.1336 19.8246C14.9782 19.9372 14.7908 19.9972 14.5989 19.9958C14.407 19.9944 14.2205 19.9316 14.0668 19.8167L10.0001 16.8417L5.94176 19.7917C5.78802 19.9066 5.60157 19.9694 5.40963 19.9708C5.2177 19.9722 5.03034 19.9122 4.87491 19.7996C4.71948 19.687 4.60412 19.5276 4.54569 19.3448C4.48725 19.162 4.4888 18.9653 4.5501 18.7834L6.1001 14.0084L2.04176 11.0667C1.876 10.9577 1.75047 10.7975 1.68437 10.6104C1.61826 10.4234 1.6152 10.2198 1.67566 10.0309C1.73612 9.84195 1.85678 9.67799 2.0192 9.56408C2.18161 9.45016 2.37686 9.39255 2.5751 9.40005H7.5751L9.16676 4.65838Z" fill="#FBAD39"/>
<path fill-rule="evenodd" clip-rule="evenodd" d="M31.1668 4.65838C31.2243 4.47584 31.3386 4.31641 31.4929 4.20324C31.6473 4.09007 31.8337 4.02905 32.0251 4.02905C32.2165 4.02905 32.4029 4.09007 32.5573 4.20324C32.7116 4.31641 32.8259 4.47584 32.8834 4.65838L34.4334 9.42505H39.4334C39.6317 9.41755 39.8269 9.47516 39.9893 9.58908C40.1517 9.70299 40.2724 9.86695 40.3329 10.0559C40.3933 10.2448 40.3903 10.4484 40.3242 10.6354C40.2581 10.8225 40.1325 10.9827 39.9668 11.0917L35.9084 14.0334L37.4584 18.8084C37.5197 18.9903 37.5213 19.187 37.4628 19.3698C37.4044 19.5526 37.2891 19.712 37.1336 19.8246C36.9782 19.9372 36.7908 19.9972 36.5989 19.9958C36.407 19.9944 36.2205 19.9316 36.0668 19.8167L32.0001 16.8417L27.9418 19.7917C27.788 19.9066 27.6016 19.9694 27.4096 19.9708C27.2177 19.9722 27.0303 19.9122 26.8749 19.7996C26.7195 19.687 26.6041 19.5276 26.5457 19.3448C26.4873 19.162 26.4888 18.9653 26.5501 18.7834L28.1001 14.0084L24.0418 11.0667C23.876 10.9577 23.7505 10.7975 23.6844 10.6104C23.6183 10.4234 23.6152 10.2198 23.6757 10.0309C23.7361 9.84195 23.8568 9.67799 24.0192 9.56408C24.1816 9.45016 24.3769 9.39255 24.5751 9.40005H29.5751L31.1668 4.65838Z" fill="#FBAD39"/>
<path fill-rule="evenodd" clip-rule="evenodd" d="M53.1668 4.65838C53.2243 4.47584 53.3386 4.31641 53.4929 4.20324C53.6473 4.09007 53.8337 4.02905 54.0251 4.02905C54.2165 4.02905 54.4029 4.09007 54.5573 4.20324C54.7116 4.31641 54.8259 4.47584 54.8834 4.65838L56.4334 9.42505H61.4334C61.6317 9.41755 61.8269 9.47516 61.9893 9.58908C62.1517 9.70299 62.2724 9.86695 62.3329 10.0559C62.3933 10.2448 62.3903 10.4484 62.3242 10.6354C62.2581 10.8225 62.1325 10.9827 61.9668 11.0917L57.9084 14.0334L59.4584 18.8084C59.5197 18.9903 59.5213 19.187 59.4628 19.3698C59.4044 19.5526 59.2891 19.712 59.1336 19.8246C58.9782 19.9372 58.7908 19.9972 58.5989 19.9958C58.407 19.9944 58.2205 19.9316 58.0668 19.8167L54.0001 16.8417L49.9418 19.7917C49.788 19.9066 49.6016 19.9694 49.4096 19.9708C49.2177 19.9722 49.0303 19.9122 48.8749 19.7996C48.7195 19.687 48.6041 19.5276 48.5457 19.3448C48.4873 19.162 48.4888 18.9653 48.5501 18.7834L50.1001 14.0084L46.0418 11.0667C45.876 10.9577 45.7505 10.7975 45.6844 10.6104C45.6183 10.4234 45.6152 10.2198 45.6757 10.0309C45.7361 9.84195 45.8568 9.67799 46.0192 9.56408C46.1816 9.45016 46.3769 9.39255 46.5751 9.40005H51.5751L53.1668 4.65838Z" fill="#FBAD39"/>
<path fill-rule="evenodd" clip-rule="evenodd" d="M75.1668 4.65838C75.2243 4.47584 75.3386 4.31641 75.4929 4.20324C75.6473 4.09007 75.8337 4.02905 76.0251 4.02905C76.2165 4.02905 76.4029 4.09007 76.5573 4.20324C76.7116 4.31641 76.8259 4.47584 76.8834 4.65838L78.4334 9.42505H83.4334C83.6317 9.41755 83.8269 9.47516 83.9893 9.58908C84.1517 9.70299 84.2724 9.86695 84.3329 10.0559C84.3933 10.2448 84.3903 10.4484 84.3242 10.6354C84.2581 10.8225 84.1325 10.9827 83.9668 11.0917L79.9084 14.0334L81.4584 18.8084C81.5197 18.9903 81.5213 19.187 81.4628 19.3698C81.4044 19.5526 81.2891 19.712 81.1336 19.8246C80.9782 19.9372 80.7908 19.9972 80.5989 19.9958C80.407 19.9944 80.2205 19.9316 80.0668 19.8167L76.0001 16.8417L71.9418 19.7917C71.788 19.9066 71.6016 19.9694 71.4096 19.9708C71.2177 19.9722 71.0303 19.9122 70.8749 19.7996C70.7195 19.687 70.6041 19.5276 70.5457 19.3448C70.4873 19.162 70.4888 18.9653 70.5501 18.7834L72.1001 14.0084L68.0418 11.0667C67.876 10.9577 67.7505 10.7975 67.6844 10.6104C67.6183 10.4234 67.6152 10.2198 67.6757 10.0309C67.7361 9.84195 67.8568 9.67799 68.0192 9.56408C68.1816 9.45016 68.3769 9.39255 68.5751 9.40005H73.5751L75.1668 4.65838Z" fill="#FBAD39"/>
<path fill-rule="evenodd" clip-rule="evenodd" d="M97.1668 4.65838C97.2243 4.47584 97.3386 4.31641 97.4929 4.20324C97.6473 4.09007 97.8337 4.02905 98.0251 4.02905C98.2165 4.02905 98.4029 4.09007 98.5573 4.20324C98.7116 4.31641 98.8259 4.47584 98.8834 4.65838L100.433 9.42505H105.433C105.632 9.41755 105.827 9.47516 105.989 9.58908C106.152 9.70299 106.272 9.86695 106.333 10.0559C106.393 10.2448 106.39 10.4484 106.324 10.6354C106.258 10.8225 106.133 10.9827 105.967 11.0917L101.908 14.0334L103.458 18.8084C103.52 18.9903 103.521 19.187 103.463 19.3698C103.404 19.5526 103.289 19.712 103.134 19.8246C102.978 19.9372 102.791 19.9972 102.599 19.9958C102.407 19.9944 102.221 19.9316 102.067 19.8167L98.0001 16.8417L93.9418 19.7917C93.788 19.9066 93.6016 19.9694 93.4096 19.9708C93.2177 19.9722 93.0303 19.9122 92.8749 19.7996C92.7195 19.687 92.6041 19.5276 92.5457 19.3448C92.4873 19.162 92.4888 18.9653 92.5501 18.7834L94.1001 14.0084L90.0418 11.0667C89.876 10.9577 89.7505 10.7975 89.6844 10.6104C89.6183 10.4234 89.6152 10.2198 89.6757 10.0309C89.7361 9.84195 89.8568 9.67799 90.0192 9.56408C90.1816 9.45016 90.3769 9.39255 90.5751 9.40005H95.5751L97.1668 4.65838Z" stroke="#90A3BF" stroke-width="1.5" stroke-linecap="round" stroke-linejoin="round"/>
</g>
<path d="M121.726 18V15.592H116.602V14.458L121.698 7.57H123.014V14.458H124.372V15.592H123.014V18H121.726ZM117.638 14.948L117.442 14.458H121.726V8.718L122.132 8.83L117.638 14.948ZM130.934 18V15.592H125.81V14.458L130.906 7.57H132.222V14.458H133.58V15.592H132.222V18H130.934ZM126.846 14.948L126.65 14.458H130.934V8.718L131.34 8.83L126.846 14.948ZM139.497 18.168C138.667 18.168 137.939 17.944 137.313 17.496C136.697 17.0387 136.217 16.4087 135.871 15.606C135.526 14.794 135.353 13.8513 135.353 12.778C135.353 11.7047 135.526 10.7667 135.871 9.964C136.217 9.152 136.697 8.522 137.313 8.074C137.929 7.626 138.653 7.402 139.483 7.402C140.314 7.402 141.037 7.626 141.653 8.074C142.269 8.522 142.75 9.152 143.095 9.964C143.45 10.7667 143.627 11.7047 143.627 12.778C143.627 13.8513 143.455 14.794 143.109 15.606C142.764 16.418 142.279 17.048 141.653 17.496C141.037 17.944 140.319 18.168 139.497 18.168ZM139.497 16.894C140.057 16.894 140.543 16.726 140.953 16.39C141.364 16.0447 141.681 15.564 141.905 14.948C142.139 14.332 142.255 13.6087 142.255 12.778C142.255 11.9473 142.139 11.224 141.905 10.608C141.681 9.992 141.359 9.516 140.939 9.18C140.529 8.844 140.043 8.676 139.483 8.676C138.923 8.676 138.438 8.844 138.027 9.18C137.617 9.516 137.295 9.992 137.061 10.608C136.837 11.224 136.725 11.9473 136.725 12.778C136.725 13.5993 136.837 14.318 137.061 14.934C137.295 15.55 137.617 16.0307 138.027 16.376C138.447 16.7213 138.937 16.894 139.497 16.894ZM148.592 18V15.102H145.694V13.884H148.592V11H149.81V13.884H152.694V15.102H149.81V18H148.592ZM157.705 18V7.57H161.387C162.077 7.57 162.684 7.70067 163.207 7.962C163.729 8.22333 164.135 8.59667 164.425 9.082C164.723 9.56733 164.873 10.1367 164.873 10.79C164.873 11.5273 164.686 12.1527 164.313 12.666C163.939 13.1793 163.435 13.548 162.801 13.772L165.223 18H163.627L161.079 13.478L161.989 14.01H159.077V18H157.705ZM159.077 12.75H161.429C161.839 12.75 162.199 12.6707 162.507 12.512C162.815 12.3533 163.053 12.1247 163.221 11.826C163.398 11.5273 163.487 11.182 163.487 10.79C163.487 10.3887 163.398 10.0433 163.221 9.754C163.053 9.45533 162.815 9.22667 162.507 9.068C162.199 8.90933 161.839 8.83 161.429 8.83H159.077V12.75ZM169.957 18.168C169.229 18.168 168.58 17.9953 168.011 17.65C167.442 17.3047 166.994 16.8333 166.667 16.236C166.34 15.6293 166.177 14.9527 166.177 14.206C166.177 13.45 166.336 12.778 166.653 12.19C166.98 11.602 167.418 11.14 167.969 10.804C168.529 10.4587 169.154 10.286 169.845 10.286C170.405 10.286 170.9 10.3887 171.329 10.594C171.768 10.79 172.136 11.0607 172.435 11.406C172.743 11.742 172.976 12.1293 173.135 12.568C173.303 12.9973 173.387 13.4453 173.387 13.912C173.387 14.0147 173.378 14.1313 173.359 14.262C173.35 14.3833 173.336 14.5 173.317 14.612H167.129V13.492H172.561L171.945 13.996C172.029 13.5107 171.982 13.0767 171.805 12.694C171.628 12.3113 171.366 12.008 171.021 11.784C170.676 11.56 170.284 11.448 169.845 11.448C169.406 11.448 169.005 11.56 168.641 11.784C168.277 12.008 167.992 12.33 167.787 12.75C167.591 13.1607 167.512 13.6507 167.549 14.22C167.512 14.7707 167.596 15.256 167.801 15.676C168.016 16.0867 168.314 16.4087 168.697 16.642C169.089 16.866 169.514 16.978 169.971 16.978C170.475 16.978 170.9 16.8613 171.245 16.628C171.59 16.3947 171.87 16.096 172.085 15.732L173.177 16.292C173.028 16.6373 172.794 16.9547 172.477 17.244C172.169 17.524 171.8 17.748 171.371 17.916C170.951 18.084 170.48 18.168 169.957 18.168ZM177.328 18L174.374 10.454H175.83L178.196 16.838H177.692L180.072 10.454H181.528L178.56 18H177.328ZM182.973 18V10.454H184.275V18H182.973ZM182.973 9.25V7.57H184.275V9.25H182.973ZM190.047 18.168C189.319 18.168 188.67 17.9953 188.101 17.65C187.532 17.3047 187.084 16.8333 186.757 16.236C186.43 15.6293 186.267 14.9527 186.267 14.206C186.267 13.45 186.426 12.778 186.743 12.19C187.07 11.602 187.508 11.14 188.059 10.804C188.619 10.4587 189.244 10.286 189.935 10.286C190.495 10.286 190.99 10.3887 191.419 10.594C191.858 10.79 192.226 11.0607 192.525 11.406C192.833 11.742 193.066 12.1293 193.225 12.568C193.393 12.9973 193.477 13.4453 193.477 13.912C193.477 14.0147 193.468 14.1313 193.449 14.262C193.44 14.3833 193.426 14.5 193.407 14.612H187.219V13.492H192.651L192.035 13.996C192.119 13.5107 192.072 13.0767 191.895 12.694C191.718 12.3113 191.456 12.008 191.111 11.784C190.766 11.56 190.374 11.448 189.935 11.448C189.496 11.448 189.095 11.56 188.731 11.784C188.367 12.008 188.082 12.33 187.877 12.75C187.681 13.1607 187.602 13.6507 187.639 14.22C187.602 14.7707 187.686 15.256 187.891 15.676C188.106 16.0867 188.404 16.4087 188.787 16.642C189.179 16.866 189.604 16.978 190.061 16.978C190.565 16.978 190.99 16.8613 191.335 16.628C191.68 16.3947 191.96 16.096 192.175 15.732L193.267 16.292C193.118 16.6373 192.884 16.9547 192.567 17.244C192.259 17.524 191.89 17.748 191.461 17.916C191.041 18.084 190.57 18.168 190.047 18.168ZM197.19 18L194.6 10.454H196.042L198.1 16.768L197.596 16.754L199.612 10.454H200.844L202.86 16.754L202.356 16.768L204.428 10.454H205.856L203.266 18H202.02L200.032 11.7H200.424L198.436 18H197.19ZM210.636 18.168C209.908 18.168 209.26 17.9953 208.69 17.65C208.121 17.3047 207.673 16.8333 207.346 16.236C207.02 15.6293 206.856 14.9527 206.856 14.206C206.856 13.45 207.015 12.778 207.332 12.19C207.659 11.602 208.098 11.14 208.648 10.804C209.208 10.4587 209.834 10.286 210.524 10.286C211.084 10.286 211.579 10.3887 212.008 10.594C212.447 10.79 212.816 11.0607 213.114 11.406C213.422 11.742 213.656 12.1293 213.814 12.568C213.982 12.9973 214.066 13.4453 214.066 13.912C214.066 14.0147 214.057 14.1313 214.038 14.262C214.029 14.3833 214.015 14.5 213.996 14.612H207.808V13.492H213.24L212.624 13.996C212.708 13.5107 212.662 13.0767 212.484 12.694C212.307 12.3113 212.046 12.008 211.7 11.784C211.355 11.56 210.963 11.448 210.524 11.448C210.086 11.448 209.684 11.56 209.32 11.784C208.956 12.008 208.672 12.33 208.466 12.75C208.27 13.1607 208.191 13.6507 208.228 14.22C208.191 14.7707 208.275 15.256 208.48 15.676C208.695 16.0867 208.994 16.4087 209.376 16.642C209.768 16.866 210.193 16.978 210.65 16.978C211.154 16.978 211.579 16.8613 211.924 16.628C212.27 16.3947 212.55 16.096 212.764 15.732L213.856 16.292C213.707 16.6373 213.474 16.9547 213.156 17.244C212.848 17.524 212.48 17.748 212.05 17.916C211.63 18.084 211.159 18.168 210.636 18.168ZM216.044 18V10.454H217.318V11.84L217.178 11.644C217.355 11.2147 217.626 10.8973 217.99 10.692C218.354 10.4773 218.797 10.37 219.32 10.37H219.782V11.602H219.124C218.592 11.602 218.162 11.77 217.836 12.106C217.509 12.4327 217.346 12.8993 217.346 13.506V18H216.044Z" fill="#596780"/>
<defs>
<clipPath id="clip0_44_15986">
<rect width="108" height="20" fill="white" transform="translate(0 2)"/>
</clipPath>
</defs>
</svg>
